<svg xmlns="http://www.w3.org/2000/svg" xmlns:xlink="http://www.w3.org/1999/xlink" version="1.1" x="0px" y="0px" viewBox="0 0 100 125" style="enable-background:new 0 0 100 100;" xml:space="preserve"><g><path d="M50,85.6c19.6,0,35.6-16,35.6-35.6S69.6,14.4,50,14.4S14.4,30.4,14.4,50S30.4,85.6,50,85.6z M50,18.4   c17.4,0,31.6,14.2,31.6,31.6c0,17.4-14.2,31.6-31.6,31.6S18.4,67.4,18.4,50C18.4,32.6,32.6,18.4,50,18.4z"/><path d="M36.6,63.4C37,63.8,37.5,64,38,64s1-0.2,1.4-0.6L50,52.8l10.6,10.6C61,63.8,61.5,64,62,64s1-0.2,1.4-0.6   c0.8-0.8,0.8-2,0-2.8L52.8,50l10.6-10.6c0.8-0.8,0.8-2,0-2.8c-0.8-0.8-2-0.8-2.8,0L50,47.2L39.4,36.6c-0.8-0.8-2-0.8-2.8,0   c-0.8,0.8-0.8,2,0,2.8L47.2,50L36.6,60.6C35.8,61.4,35.8,62.7,36.6,63.4z"/></g><text x="0" y="115" fill="#000000" font-size="5px" font-weight="bold" font-family="'Helvetica Neue', Helvetica, Arial-Unicode, Arial, Sans-serif"></text><text x="0" y="120" fill="#000000" font-size="5px" font-weight="bold" font-family="'Helvetica Neue', Helvetica, Arial-Unicode, Arial, Sans-serif"></text></svg>