<?xml version="1.0" encoding="UTF-8" standalone="no"?>
<svg xmlns="http://www.w3.org/2000/svg" version="1.1" xmlns:xlink="http://www.w3.org/1999/xlink" xmlns:svgjs="http://svgjs.dev/svgjs" width="1000" height="1046" viewBox="0 0 1000 1046"><g transform="matrix(1,0,0,1,-0.7735253778416791,0.4242637912180953)"><svg viewBox="0 0 236 247" data-background-color="#ffffff" preserveAspectRatio="xMidYMid meet" height="1046" width="1000" xmlns="http://www.w3.org/2000/svg" xmlns:xlink="http://www.w3.org/1999/xlink"><g id="tight-bounds" transform="matrix(1,0,0,1,0.18255198917063353,-0.09997365579206985)"><svg viewBox="0 0 235.63480993464051 247.2" height="247.2" width="235.63480993464051"><g><svg viewBox="0 0 235.63480993464051 247.2" height="247.2" width="235.63480993464051"><g><svg viewBox="0 0 235.63480993464051 247.2" height="247.2" width="235.63480993464051"><g id="textblocktransform"><svg viewBox="0 0 235.63480993464051 247.2" height="247.2" width="235.63480993464051" id="textblock"><g><svg viewBox="0 0 235.63480993464051 247.2" height="247.2" width="235.63480993464051"><path d="M235.083 53.02C233.975 27.36 230.818 20.227 230.818 20.227 221.125-6.202 209.028-0.506 198.161 3.292 178.975 3.446 159.866 9.091 140.723 12.119 100.544 12.581 60.022 4.986 20.043 23.717 16.288 29.464-3.896 24.846 0.668 56.304 1.864 69.39 6.229 83.913 6.096 95.922 6.694 98.026 7.525 93.202 7.88 96.23 9.12 104.39 11.147 100.541 12.809 105.365 10.494 118.246 12.156 128.971 13.74 140.21 10.948 143.135 7.37 141.749 5.764 151.449 5.598 158.479 4.7 157.145 3.714 156.837 2.994 156.632 1.543 157.402 1.787 159.608 2.618 167.152-0.949 171.514 1.288 178.904-0.251 186.91 2.352 193.838 1.997 202.511 1.953 204.255 2.197 205.744 2.584 206.154 4.301 208.361 1.798 212.672 2.064 217.342 19.677 249.262 38.786 227.195 56.832 241.872 61.518 231.608 57.995 245.516 59.867 243.36 61.329 240.846 62.393 251.263 64.043 245.362 64.298 243.668 63.911 239.665 64.819 240.435 65.295 240.846 65.716 240.743 65.783 238.382 65.882 234.841 65.007 237.048 64.775 235.201 67.289 225.861 66.669 248.081 69.028 247.158 68.918 244.438 68.231 240.538 69.638 241.051 71.034 237.151 71.078 233.918 72.319 242.693 72.363 244.592 72.584 245.926 72.939 246.85 76.816 237.305 80.671 250.237 84.737 245.926 87.229 241.205 89.622 248.492 92.148 246.696 93.034 245.259 93.931 242.693 94.784 247.004 105.23 247.928 116.363 244.079 126.267 247.158 152.732 241.41 181.013 249.518 208.918 241.923 215.498 238.998 222.333 234.841 228.747 231.506 228.747 231.506 233.942 222.371 233.942 181.316S235.05 145.393 235.216 112.703C235.382 80.013 236.158 78.679 235.05 53.02Z" opacity="1" fill="#001f3f" data-fill-palette-color="tertiary"></path><g transform="matrix(1,0,0,1,55.76832,26.230666666666668)"><svg width="124.09816993464051" viewBox="2.75 -35.099998474121094 22.75 35.69999694824219" height="194.73866666666666" data-palette-color="#77d4fc"><path d="M13.95-35.1L13.95-35.1Q16.4-35.05 19-34.85 21.6-34.65 24.2-34.1L24.2-34.1 23.9-30.9Q21.75-31 19.15-31.08 16.55-31.15 14.15-31.15L14.15-31.15Q12.3-31.15 10.98-31.03 9.65-30.9 8.8-30.43 7.95-29.95 7.58-28.88 7.2-27.8 7.2-25.9L7.2-25.9Q7.2-23.05 8.22-21.93 9.25-20.8 11.55-20.25L11.55-20.25 18.55-18.5Q22.55-17.55 24.03-15.18 25.5-12.8 25.5-8.8L25.5-8.8Q25.5-5.8 24.83-3.95 24.15-2.1 22.75-1.13 21.35-0.15 19.15 0.23 16.95 0.6 13.95 0.6L13.95 0.6Q12.25 0.6 9.53 0.45 6.8 0.3 3.25-0.35L3.25-0.35 3.55-3.6Q6.5-3.5 8.3-3.43 10.1-3.35 11.4-3.35 12.7-3.35 14.1-3.35L14.1-3.35Q16.75-3.35 18.28-3.75 19.8-4.15 20.43-5.35 21.05-6.55 21.05-8.9L21.05-8.9Q21.05-10.9 20.6-12 20.15-13.1 19.18-13.68 18.2-14.25 16.7-14.6L16.7-14.6 9.55-16.4Q5.8-17.35 4.28-19.7 2.75-22.05 2.75-26L2.75-26Q2.75-29 3.43-30.83 4.1-32.65 5.48-33.58 6.85-34.5 8.95-34.8 11.05-35.1 13.95-35.1Z" opacity="1" transform="matrix(1,0,0,1,0,0)" fill="#77d4fc" class="wordmark-text-0" data-fill-palette-color="quaternary" id="text-0"></path></svg></g></svg></g></svg></g></svg></g><g></g></svg></g><defs></defs></svg><rect width="235.63480993464051" height="247.2" fill="none" stroke="none" visibility="hidden"></rect></g></svg></g></svg>