<svg xmlns:dc="http://purl.org/dc/elements/1.1/" xmlns:cc="http://creativecommons.org/ns#" xmlns:rdf="http://www.w3.org/1999/02/22-rdf-syntax-ns#" xmlns:svg="http://www.w3.org/2000/svg" xmlns="http://www.w3.org/2000/svg" xmlns:sodipodi="http://sodipodi.sourceforge.net/DTD/sodipodi-0.dtd" xmlns:inkscape="http://www.inkscape.org/namespaces/inkscape" version="1.1" x="0px" y="0px" viewBox="0 0 100 125"><g transform="translate(0,-952.36218)"><path style="text-indent:0;text-transform:none;direction:ltr;block-progression:tb;baseline-shift:baseline;color:#000000;enable-background:accumulate;" d="m 49.994998,958.36217 c -24.278666,0 -43.9949992,19.7244 -43.9949992,44.00003 0,24.2756 19.7163332,44 43.9949992,44 24.278667,0 44.005003,-19.7238 44.005003,-44 0,-24.2762 -19.726336,-44.00003 -44.005003,-44.00003 z m 0,3.99969 c 22.117188,0 40.005313,17.88613 40.005313,40.00034 0,22.1142 -17.888125,40.0006 -40.005313,40.0006 -22.117187,0 -39.9956232,-17.8859 -39.9956232,-40.0006 0,-22.11478 17.8784362,-40.00034 39.9956232,-40.00034 z" fill="#000000" fill-opacity="1" fill-rule="evenodd" stroke="none" marker="none" visibility="visible" display="inline" overflow="visible"/><path style="text-indent:0;text-transform:none;direction:ltr;block-progression:tb;baseline-shift:baseline;color:#000000;enable-background:accumulate;" d="m 35.060625,984.28498 a 2.000005,2.000005 0 1 0 0,3.99969 l 29.868437,0 a 2.000005,2.000005 0 1 0 0,-3.99969 l -29.868437,0 z" fill="#000000" fill-opacity="1" fill-rule="evenodd" stroke="none" marker="none" visibility="visible" display="inline" overflow="visible"/><path style="text-indent:0;text-transform:none;direction:ltr;block-progression:tb;baseline-shift:baseline;color:#000000;enable-background:accumulate;" d="m 30.082499,1000.3625 a 2.000005,2.000005 0 1 0 0,3.9997 l 39.824688,0 a 2.000005,2.000005 0 1 0 0,-3.9997 l -39.824688,0 z" fill="#000000" fill-opacity="1" fill-rule="evenodd" stroke="none" marker="none" visibility="visible" display="inline" overflow="visible"/><path style="text-indent:0;text-transform:none;direction:ltr;block-progression:tb;baseline-shift:baseline;color:#000000;enable-background:accumulate;" d="m 35.060625,1016.4397 a 2.000005,2.000005 0 1 0 0,3.9997 l 29.868437,0 a 2.000005,2.000005 0 1 0 0,-3.9997 l -29.868437,0 z" fill="#000000" fill-opacity="1" fill-rule="evenodd" stroke="none" marker="none" visibility="visible" display="inline" overflow="visible"/></g><text x="0" y="115" fill="#000000" font-size="5px" font-weight="bold" font-family="'Helvetica Neue', Helvetica, Arial-Unicode, Arial, Sans-serif"></text><text x="0" y="120" fill="#000000" font-size="5px" font-weight="bold" font-family="'Helvetica Neue', Helvetica, Arial-Unicode, Arial, Sans-serif"></text></svg>

